<svg xmlns="http://www.w3.org/2000/svg" viewBox="0 0 64 64" fill="currentColor">
  <path d="M58.5 18.5c-1.5-2.5-4-4.5-7-5.5-1.5-.5-3-.5-4.5.2-2 .8-3.2 2.5-4 4.5-.3.8-.5 1.6-.7 2.5-2.5-1-5.5-1.2-8.5-.5-5 1.5-9.5 5-12 9.5-2 4-3 8.5-2.5 13 .2 2 .8 4 2 5.5.8 1.2 2 2 3.3 2.5 1 .3 2 .4 3 .2 2-.2 4-.8 5.5-2 1.5-1 2.5-2 3.5-3.5l1-2 4 5c1.2 1.8 3 3.2 5 4 1.2.5 2.5.5 3.8 0 2-.8 3.2-2.2 4-4 1.2-2.8 1.2-6 .5-9l-.5-3 2.5.5c2 .5 4 0 5.5-1.2 2-1.5 3-3.5 3.2-5.5.8-3.5.2-7-1.5-10zM27 48c-1.5 1.2-3.2 2-5 2.2-.8 0-1.8 0-2.5-.5-.8-.5-1.5-1.2-2-2.5-.5-1.2-.8-3-1-5-.2-4 .8-8 2.2-11 2.5-4 6.2-7 10.5-8.2 2.5-.7 5-.5 7 .5l-.5 2.5c-1 4.5-1 9 .2 13l-2 3c-1.5 2.5-3.5 4.5-7 6zm26-2c-.2 2.5-.8 5-1.5 7-.5 1.5-1.5 2.5-2.5 3-.8.2-1.5.2-2.2-.2-1.5-.8-2.8-2-4-3.5L38 45c-.8-1.2-1.2-2.8-1.5-4.2-.5-4 .2-8.5 1.5-12.5l.5-3c.5-1.8 1.5-3.2 2.8-4 1-.5 2-.5 3.2 0 3 1.2 5.5 3.2 7.5 6 1.5 2 2.2 4.5 2 7l-.5 3.5-2.5-.8c-1.2-.2-2.2.5-2.5 1.2-.2 1 0 2 .8 2.8l3 2c.5.3.7.8.7 1.5zM36 31c-.8 0-1.2.5-1.2 1.2s.5 1.2 1.2 1.2 1.2-.5 1.2-1.2-.5-1.2-1.2-1.2z"/>
</svg>
